<svg width="100" height="100" viewBox="0 0 100 100" fill="none" xmlns="http://www.w3.org/2000/svg">
<mask id="path-1-inside-1" fill="white">
<path d="M100 50C100 77.6142 77.6142 100 50 100C22.3858 100 0 77.6142 0 50C0 22.3858 22.3858 0 50 0C77.6142 0 100 22.3858 100 50ZM12.0582 50C12.0582 70.9547 29.0453 87.9418 50 87.9418C70.9547 87.9418 87.9418 70.9547 87.9418 50C87.9418 29.0453 70.9547 12.0582 50 12.0582C29.0453 12.0582 12.0582 29.0453 12.0582 50Z"/>
</mask>
<path d="M100 50C100 77.6142 77.6142 100 50 100C22.3858 100 0 77.6142 0 50C0 22.3858 22.3858 0 50 0C77.6142 0 100 22.3858 100 50ZM12.0582 50C12.0582 70.9547 29.0453 87.9418 50 87.9418C70.9547 87.9418 87.9418 70.9547 87.9418 50C87.9418 29.0453 70.9547 12.0582 50 12.0582C29.0453 12.0582 12.0582 29.0453 12.0582 50Z" fill="#F60000" stroke="#333333" stroke-width="2" mask="url(#path-1-inside-1)"/>
</svg>
