<svg width="100" height="100" viewBox="0 0 100 100" fill="none" xmlns="http://www.w3.org/2000/svg">
<path fill-rule="evenodd" clip-rule="evenodd" d="M51 42.6667L9.33333 1L1 9.33333L42.6667 51L1.00001 92.6667L9.33334 101L51 59.3333L92.6666 101L101 92.6667L59.3333 51L101 9.33336L92.6667 1.00002L51 42.6667Z" fill="#375EAA"/>
<path d="M9.33333 1L9.68689 0.646447L9.33333 0.292893L8.97978 0.646447L9.33333 1ZM51 42.6667L50.6465 43.0202L51 43.3738L51.3536 43.0202L51 42.6667ZM1 9.33333L0.646447 8.97978L0.292893 9.33333L0.646447 9.68689L1 9.33333ZM42.6667 51L43.0202 51.3536L43.3738 51L43.0202 50.6465L42.6667 51ZM1.00001 92.6667L0.646457 92.3131L0.292903 92.6667L0.646457 93.0202L1.00001 92.6667ZM9.33334 101L8.97979 101.354L9.33334 101.707L9.6869 101.354L9.33334 101ZM51 59.3333L51.3536 58.9798L51 58.6262L50.6465 58.9798L51 59.3333ZM92.6666 101L92.3131 101.354L92.6666 101.707L93.0202 101.354L92.6666 101ZM101 92.6667L101.354 93.0202L101.707 92.6667L101.354 92.3131L101 92.6667ZM59.3333 51L58.9798 50.6465L58.6262 51L58.9798 51.3536L59.3333 51ZM101 9.33336L101.354 9.68691L101.707 9.33336L101.354 8.9798L101 9.33336ZM92.6667 1.00002L93.0202 0.646469L92.6667 0.292916L92.3131 0.646469L92.6667 1.00002ZM8.97978 1.35355L50.6465 43.0202L51.3536 42.3131L9.68689 0.646447L8.97978 1.35355ZM1.35355 9.68689L9.68689 1.35355L8.97978 0.646447L0.646447 8.97978L1.35355 9.68689ZM43.0202 50.6465L1.35355 8.97978L0.646447 9.68689L42.3131 51.3536L43.0202 50.6465ZM1.35356 93.0202L43.0202 51.3536L42.3131 50.6465L0.646457 92.3131L1.35356 93.0202ZM9.6869 100.646L1.35356 92.3131L0.646457 93.0202L8.97979 101.354L9.6869 100.646ZM50.6465 58.9798L8.97979 100.646L9.6869 101.354L51.3536 59.6869L50.6465 58.9798ZM93.0202 100.646L51.3536 58.9798L50.6465 59.6869L92.3131 101.354L93.0202 100.646ZM100.646 92.3131L92.3131 100.646L93.0202 101.354L101.354 93.0202L100.646 92.3131ZM58.9798 51.3536L100.646 93.0202L101.354 92.3131L59.6869 50.6465L58.9798 51.3536ZM100.646 8.9798L58.9798 50.6465L59.6869 51.3536L101.354 9.68691L100.646 8.9798ZM92.3131 1.35358L100.646 9.68691L101.354 8.9798L93.0202 0.646469L92.3131 1.35358ZM51.3536 43.0202L93.0202 1.35358L92.3131 0.646469L50.6465 42.3131L51.3536 43.0202Z" fill="#333333"/>
</svg>
