<svg width="50" height="50" viewBox="0 0 50 50" fill="none" xmlns="http://www.w3.org/2000/svg">
<circle cx="25" cy="25" r="23.5" fill="#F60000" stroke="black" stroke-width="3"/>
<path d="M3 25C3 27.8891 3.56905 30.7499 4.67465 33.419C5.78025 36.0882 7.40076 38.5135 9.44365 40.5563C11.4865 42.5992 13.9118 44.2197 16.581 45.3253C19.2501 46.431 22.1109 47 25 47C27.8891 47 30.7499 46.431 33.419 45.3254C36.0882 44.2197 38.5135 42.5992 40.5564 40.5564C42.5992 38.5135 44.2197 36.0882 45.3253 33.419C46.431 30.7499 47 27.8891 47 25L25 25L3 25Z" fill="white"/>
<line x1="1" y1="25.5" x2="49" y2="25.5" stroke="black" stroke-width="3"/>
<circle cx="24.5" cy="25.5" r="7" fill="white" stroke="black" stroke-width="3"/>
</svg>
